HIERARCHY
ROOT Hips
{
	OFFSET 0.000000 0.000000 0.000000
	CHANNELS 6 Xposition Yposition Zposition Zrotation Yrotation Xrotation 
	JOINT LHipJoint
	{
		OFFSET 0.000000 0.000000 0.000000
		CHANNELS 3 Zrotation Yrotation Xrotation
		JOINT LeftUpLeg
		{
			OFFSET 1.363060 -1.794630 0.839290
			CHANNELS 3 Zrotation Yrotation Xrotation
			JOINT LeftLeg
			{
				OFFSET 2.448110 -6.726130 0.000000
				CHANNELS 3 Zrotation Yrotation Xrotation
				JOINT LeftFoot
				{
					OFFSET 2.562200 -7.039590 0.000000
					CHANNELS 3 Zrotation Yrotation Xrotation
					JOINT LeftToeBase
					{
						OFFSET 0.157640 -0.433110 2.322550
						CHANNELS 3 Zrotation Yrotation Xrotation
						End Site
						{
							OFFSET 0.000000 0.000000 0.000000
						}
					}
				}
			}
		}
	}
	JOINT RHipJoint
	{
		OFFSET 0.000000 0.000000 0.000000
		CHANNELS 3 Zrotation Yrotation Xrotation
		JOINT RightUpLeg
		{
			OFFSET -1.305520 -1.794630 0.839290
			CHANNELS 3 Zrotation Yrotation Xrotation
			JOINT RightLeg
			{
				OFFSET -2.542530 -6.985550 0.000000
				CHANNELS 3 Zrotation Yrotation Xrotation
				JOINT RightFoot
				{
					OFFSET -2.568260 -7.056230 0.000000
					CHANNELS 3 Zrotation Yrotation Xrotation
					JOINT RightToeBase
					{
						OFFSET -0.164730 -0.452590 2.363150
						CHANNELS 3 Zrotation Yrotation Xrotation
						End Site
						{
							OFFSET 0.000000 0.000000 0.000000
						}
					}
				}
			}
		}
	}
	JOINT LowerBack
	{
		OFFSET 0.000000 0.000000 0.000000
		CHANNELS 3 Zrotation Yrotation Xrotation
		JOINT Spine
		{
			OFFSET 0.028270 2.035590 -0.193380
			CHANNELS 3 Zrotation Yrotation Xrotation
			JOINT Spine1
			{
				OFFSET 0.056720 2.048850 -0.042750
				CHANNELS 3 Zrotation Yrotation Xrotation
				JOINT Neck
				{
					OFFSET 0.000000 0.000000 0.000000
					CHANNELS 3 Zrotation Yrotation Xrotation
					JOINT Neck1
					{
						OFFSET -0.054170 1.746240 0.172020
						CHANNELS 3 Zrotation Yrotation Xrotation
						JOINT Head
						{
							OFFSET 0.104070 1.761360 -0.123970
							CHANNELS 3 Zrotation Yrotation Xrotation
							End Site
							{
								OFFSET 0.000000 0.000000 0.000000
							}
						}
					}
				}
				JOINT LeftShoulder
				{
					OFFSET 0.000000 0.000000 0.000000
					CHANNELS 3 Zrotation Yrotation Xrotation
					JOINT LeftArm
					{
						OFFSET 3.362410 1.200890 -0.311210
						CHANNELS 3 Zrotation Yrotation Xrotation
						JOINT LeftForeArm
						{
							OFFSET 4.983000 -0.000000 -0.000000
							CHANNELS 3 Zrotation Yrotation Xrotation
							JOINT LeftHand
							{
								OFFSET 3.483560 -0.000000 -0.000000
								CHANNELS 3 Zrotation Yrotation Xrotation
								JOINT LeftFingerBase
								{
									OFFSET 0.000000 0.000000 0.000000
									CHANNELS 3 Zrotation Yrotation Xrotation
									JOINT LeftHandIndex1
									{
										OFFSET 0.715260 -0.000000 -0.000000
										CHANNELS 3 Zrotation Yrotation Xrotation
										End Site
										{
											OFFSET 0.000000 0.000000 0.000000
										}
									}
								}
								JOINT LThumb
								{
									OFFSET 0.000000 0.000000 0.000000
									CHANNELS 3 Zrotation Yrotation Xrotation
									End Site
									{
										OFFSET 0.000000 0.000000 0.000000
									}
								}
							}
						}
					}
				}
				JOINT RightShoulder
				{
					OFFSET 0.000000 0.000000 0.000000
					CHANNELS 3 Zrotation Yrotation Xrotation
					JOINT RightArm
					{
						OFFSET -3.136600 1.374050 -0.404650
						CHANNELS 3 Zrotation Yrotation Xrotation
						JOINT RightForeArm
						{
							OFFSET -5.241900 -0.000000 -0.000000
							CHANNELS 3 Zrotation Yrotation Xrotation
							JOINT RightHand
							{
								OFFSET -3.444170 -0.000000 -0.000000
								CHANNELS 3 Zrotation Yrotation Xrotation
								JOINT RightFingerBase
								{
									OFFSET 0.000000 0.000000 0.000000
									CHANNELS 3 Zrotation Yrotation Xrotation
									JOINT RightHandIndex1
									{
										OFFSET -0.622530 -0.000000 -0.000000
										CHANNELS 3 Zrotation Yrotation Xrotation
										End Site
										{
											OFFSET 0.000000 0.000000 0.000000
										}
									}
								}
								JOINT RThumb
								{
									OFFSET 0.000000 0.000000 0.000000
									CHANNELS 3 Zrotation Yrotation Xrotation
									End Site
									{
										OFFSET 0.000000 0.000000 0.000000
									}
								}
							}
						}
					}
				}
			}
		}
	}
}
MOTION
Frames: 7
Frame Time: 0.008333
-0.097957 14.250060 27.699850 -89.353271 83.670375 -78.237746 10.100410 13.291414 7.187434 -34.077967 -23.735288 -54.271508 -8.013768 17.133842 38.324198 -0.553995 -3.044920 -6.184569 -0.549576 -0.189132 -0.959640 4.981650 17.043009 -11.089175 -8.416199 -29.894357 12.225089 140.508306 -7.673841 151.556826 -137.896621 -31.661038 148.702260 -91.773147 76.435664 -47.932690 -15.219908 -2.715869 6.637724 5.154929 7.805610 -3.301367 0.445009 6.018939 12.599312 4.186937 4.388026 -17.215940 2.967594 3.021234 13.030644 -14.420839 10.796886 2.521067 21.454961 2.083120 -7.201299 -72.229290 17.937124 32.027231 48.427837 -66.791560 15.146947 8.995379 -38.795366 2.319464 0.000002 -0.000001 0.000002 -0.000000 -0.000000 -0.000000 0.000000 0.000000 0.000000 -0.383078 -2.647354 9.511622 62.469526 48.001271 0.313319 -5.168262 79.060178 40.639628 -28.343749 17.143717 -2.288638 -0.000005 0.000004 -0.000002 0.000000 -0.000000 -0.000000 -0.000000 0.000000 0.000000 
0.199141 14.236817 27.683634 -94.358138 82.344720 -83.537376 11.184908 13.871049 7.498970 -34.057313 -24.312601 -53.206196 -8.552107 16.645627 36.638659 0.031566 -1.525120 -6.596271 -1.450730 -2.655429 -0.669297 4.306594 19.506620 -12.170405 -8.048216 -32.068874 17.398216 140.292645 -6.042440 155.617335 -132.904884 -35.372460 147.961767 -55.261396 73.778968 -6.617219 -14.463479 -2.494093 6.757327 5.222261 8.051204 -3.390975 0.169449 6.261607 12.042534 4.785547 4.352021 -16.965357 3.273348 2.891534 13.153702 -14.379350 11.097944 3.252181 22.162999 1.842721 -7.199532 -72.692489 19.365537 31.717972 48.445432 -66.995263 14.441786 7.524360 -38.341138 2.823227 0.000002 -0.000001 0.000002 0.000000 0.000000 0.000000 -0.000000 0.000000 -0.000000 0.036403 -2.511444 9.445652 63.406041 46.972398 1.923602 -7.242421 79.589183 39.674073 -28.195761 17.712129 -2.324221 -0.000005 0.000004 -0.000002 0.000000 0.000000 0.000000 -0.000000 -0.000000 0.000000 
0.500848 14.213979 27.670571 -98.389298 80.958320 -87.590429 12.509943 14.265448 7.817258 -34.629748 -24.663582 -52.420275 -8.045282 17.018896 34.899966 -0.011860 -1.526200 -6.435432 -2.562748 -3.831296 -1.968020 3.388678 21.329446 -13.079786 -6.618027 -33.725140 21.443826 139.986971 -4.897777 159.691120 -127.453406 -39.240916 146.632660 -39.969521 68.062577 11.254215 -13.633957 -2.382562 6.544726 5.212937 8.329064 -3.455052 0.478536 6.305590 11.719573 4.797961 4.247762 -16.856571 3.601039 2.788114 13.240407 -14.144123 10.985598 3.600952 22.373738 1.755638 -7.163660 -73.075534 20.594368 31.176925 47.861468 -67.429166 15.148379 8.583038 -38.078849 2.421438 0.000002 -0.000001 0.000002 0.000000 0.000000 0.000000 0.000000 -0.000000 0.000000 -0.228414 -2.367982 9.113860 64.474149 45.830494 3.442052 -8.867951 80.100192 38.819314 -27.929778 18.219374 -2.333918 -0.000005 0.000004 -0.000002 -0.000000 0.000000 0.000000 0.000000 -0.000000 0.000000 
0.813539 14.188784 27.649700 -102.491067 79.386994 -91.477869 13.856599 14.693384 8.010778 -35.287600 -25.163778 -51.640835 -7.484686 17.355151 33.192550 -0.165526 -1.630210 -6.225604 -0.693863 -0.336426 -1.104289 2.535107 22.090327 -13.440421 -3.795464 -34.343877 23.930049 139.420824 -3.667245 163.509794 -122.023960 -43.526557 144.569059 -34.668615 65.150450 21.109677 -12.539739 -2.257645 6.006062 5.193655 8.509531 -3.489171 1.055516 6.204388 11.994451 4.483072 4.065803 -17.246796 3.905965 2.653004 13.324740 -14.380753 10.733394 3.977121 22.138373 1.884031 -7.215461 -73.320588 21.419571 31.013445 47.915367 -67.596878 14.964365 8.222888 -37.779346 2.525106 0.000002 -0.000001 0.000002 0.000000 -0.000000 0.000000 -0.000000 0.000000 0.000000 -0.696870 -2.572093 8.780095 65.389584 45.225007 4.719493 -9.514597 80.607937 38.632935 -28.066241 18.362595 -2.373287 -0.000005 0.000004 -0.000002 -0.000000 0.000000 0.000000 0.000000 -0.000000 0.000000 
1.120700 14.165360 27.626877 -106.401963 77.970586 -95.174947 14.846153 15.092685 7.875619 -36.206851 -25.362310 -50.527525 -7.184254 17.072647 31.661142 0.113551 -1.367847 -6.081643 5.065580 4.983414 5.395586 2.201215 22.819675 -13.309700 -0.810319 -33.658862 26.017406 139.790382 -4.511594 167.950929 -117.805266 -47.104884 145.220927 -32.233279 63.283428 27.127276 -11.644302 -2.230040 5.597362 5.178430 8.513618 -3.557322 1.326007 6.047469 11.652192 4.458354 3.960155 -17.073558 4.214388 2.556437 13.405154 -14.278906 10.918856 4.458626 22.153603 1.891221 -7.043353 -73.526647 22.634716 30.882045 48.139749 -67.706481 14.042089 7.148207 -37.381908 2.878047 0.000002 -0.000001 0.000002 -0.000000 0.000000 0.000000 0.000000 0.000000 0.000000 -0.976445 -2.247439 8.378587 66.331256 43.984839 5.813199 -9.374963 81.107775 38.582516 -27.855268 18.351868 -2.335387 -0.000005 0.000004 -0.000002 -0.000000 0.000000 -0.000000 -0.000000 -0.000000 0.000000 
1.399542 14.074850 27.648498 -109.735509 76.517537 -98.803767 16.653803 14.795440 7.906932 -37.041097 -25.263058 -49.728130 -7.377001 17.334123 32.158383 0.873575 0.201707 -4.034995 10.704941 9.204547 11.845292 1.156871 23.522780 -14.670430 1.272924 -34.643684 27.305732 139.482995 -6.318897 168.172727 -113.827758 -48.021724 141.716764 -31.479536 61.764939 27.081293 -10.921069 -2.249942 5.907175 4.975393 8.606737 -3.699302 1.825914 5.797708 10.960388 4.379940 3.732121 -16.619929 4.555090 2.386896 13.372103 -14.582357 10.968931 4.311341 22.933271 1.605893 -7.058762 -74.295258 23.573800 30.124182 47.508596 -68.217594 14.215534 7.069376 -37.329375 2.900667 0.000002 -0.000001 0.000002 0.000000 -0.000000 -0.000000 0.000000 0.000000 0.000000 -1.846975 -2.069204 8.142842 67.403287 42.418843 6.949181 -8.204429 80.930325 38.854036 -27.042805 18.410499 -2.194584 -0.000005 0.000004 -0.000002 -0.000000 -0.000000 -0.000000 0.000000 0.000000 -0.000000 
1.666351 13.992027 27.657057 -112.126119 75.204769 -101.421074 18.039511 14.104225 7.899935 -37.887446 -24.542761 -49.374554 -7.683946 16.870036 32.923776 1.266114 2.266675 -2.029938 11.658868 9.621843 13.020213 0.046028 23.738172 -16.029594 3.175070 -35.435283 28.236758 139.161339 -7.859211 168.076805 -108.628666 -48.837745 136.575381 -30.839478 61.889647 31.176570 -10.229242 -2.200667 6.294168 4.792968 8.714266 -3.876888 1.803022 5.823106 10.360131 4.690534 3.493032 -16.401190 4.842071 2.143776 13.340559 -15.341368 10.949721 3.843038 23.934319 1.269368 -7.122885 -75.021255 24.234241 29.517832 47.237874 -68.539944 14.439919 7.057231 -37.434215 2.913902 0.000002 -0.000001 0.000002 0.000000 0.000000 0.000000 -0.000000 -0.000000 0.000000 -2.156723 -2.131467 7.933621 68.218741 41.135790 7.876214 -6.551182 80.748398 39.867107 -26.287041 18.783208 -2.095948 -0.000005 0.000004 -0.000002 -0.000000 0.000000 -0.000000 -0.000000 0.000000 0.000000 
